<!DOCTYPE svg PUBLIC "-//W3C//DTD SVG 1.1//EN" "http://www.w3.org/Graphics/SVG/1.1/DTD/svg11.dtd">
<!-- Uploaded to: SVG Repo, www.svgrepo.com, Transformed by: SVG Repo Mixer Tools -->
<svg fill="#FF4D30" width="800px" height="800px" viewBox="0 0 24 24" xmlns="http://www.w3.org/2000/svg" stroke="#FF4D30" transform="rotate(0)">
<g id="SVGRepo_bgCarrier" stroke-width="0"/>
<g id="SVGRepo_tracerCarrier" stroke-linecap="round" stroke-linejoin="round"/>
<g id="SVGRepo_iconCarrier">
<path d="M22,4H2A1,1,0,0,0,1,5V19a1,1,0,0,0,1,1H22a1,1,0,0,0,1-1V5A1,1,0,0,0,22,4ZM21,16.184A2.987,2.987,0,0,0,19.184,18H4.816A2.987,2.987,0,0,0,3,16.184V7.816A2.987,2.987,0,0,0,4.816,6H19.184A2.987,2.987,0,0,0,21,7.816ZM12,8a4,4,0,1,0,4,4A4,4,0,0,0,12,8Zm0,6a2,2,0,1,1,2-2A2,2,0,0,1,12,14ZM7,12a1,1,0,0,1-1,1H5a1,1,0,0,1,0-2H6A1,1,0,0,1,7,12Zm13,0a1,1,0,0,1-1,1H18a1,1,0,0,1,0-2h1A1,1,0,0,1,20,12Z"/>
</g>
</svg>